<svg width="20" height="20" viewBox="0 0 25 25" fill="none" xmlns="http://www.w3.org/2000/svg">
<path d="M3.5 10C4.88071 10 6 8.88071 6 7.5C6 6.11929 4.88071 5 3.5 5C2.11929 5 1 6.11929 1 7.5C1 8.88071 2.11929 10 3.5 10Z" stroke="#000000" stroke-width="1.4"/>
<path d="M21 7V14.0447C20.6803 13.9848 20.3485 13.9529 20.0085 13.9529C17.0138 13.9529 14.5736 16.361 14.5736 19.3163C14.5736 20.2508 14.8164 21.1254 15.2413 21.8882C14.8447 21.9561 14.4481 22 14.0354 22H12.5421C10.4863 22 8.55186 21.2292 7.07476 19.8355C7.03025 19.7955 6.98573 19.7556 6.94526 19.7157L2.46539 15.2947C2.15378 14.9872 2 14.5879 2 14.1885C2 13.3578 2.67987 12.627 3.58232 12.627C3.98701 12.627 4.39169 12.7788 4.7033 13.0823L7.06262 15.4145V4.5C7.06262 3.80911 7.62918 3.25 8.32929 3.25C9.02939 3.25 9.59595 3.80911 9.59595 4.5V11.377C9.59595 11.7204 9.87923 12 10.2313 12C10.5834 12 10.8626 11.7204 10.8626 11.377V3.25C10.8626 2.55911 11.4292 2 12.1293 2C12.8294 2 13.396 2.55911 13.396 3.25V11.377C13.396 11.7204 13.6792 12 14.0313 12C14.3834 12 14.6626 11.7204 14.6626 11.377V4.5C14.6626 3.80911 15.2292 3.25 15.9293 3.25C16.6294 3.25 17.196 3.80911 17.196 4.5V11.377C17.196 11.7204 17.4792 12 17.8313 12C18.1834 12 18.4626 11.7204 18.4626 11.377V7C18.4626 6.30911 19.0292 5.75 19.7293 5.75C20.4294 5.75 20.996 6.30911 20.996 7H21Z" stroke="#000000" stroke-width="1.4"/>
<path d="M23.9962 19.4981C23.9962 21.4306 22.4247 23 20.4981 23C19.293 23 18.2277 22.3874 17.6006 21.4571C17.2229 20.8974 17 20.2242 17 19.5019C17 17.5694 18.5677 16 20.4981 16C20.8117 16 21.1101 16.0492 21.3972 16.1248C22.8931 16.5219 24 17.8871 24 19.5057L23.9962 19.4981Z" stroke="#000000" stroke-width="1.4"/>
</svg>
