<svg width="20" height="20" viewBox="0 0 24 24" fill="none" xmlns="http://www.w3.org/2000/svg">
<path d="M23.2969 1.96875H19.2656V0.703125C19.2656 0.314812 18.9508 0 18.5625 0C18.1742 0 17.8594 0.314812 17.8594 0.703125V1.96875H12.7031V0.703125C12.7031 0.314812 12.3883 0 12 0C11.6117 0 11.2969 0.314812 11.2969 0.703125V1.96875H6.14062V0.703125C6.14062 0.314812 5.82581 0 5.4375 0C5.04919 0 4.73438 0.314812 4.73438 0.703125V1.96875H0.703125C0.314812 1.96875 0 2.28356 0 2.67188V23.2969C0 23.6852 0.314812 24 0.703125 24H18.6094C18.7959 24 18.9747 23.9259 19.1065 23.794L23.794 19.1065C23.9259 18.9747 24 18.7959 24 18.6094V2.67188C24 2.28356 23.6852 1.96875 23.2969 1.96875ZM19.3125 21.5994V20.0156C19.3125 19.6279 19.6279 19.3125 20.0156 19.3125H21.5994L19.3125 21.5994ZM22.5938 17.9062H20.0156C18.8525 17.9062 17.9062 18.8525 17.9062 20.0156V22.5938H1.40625V9H22.5938V17.9062ZM22.5938 7.59375H1.40625V3.375H4.73438V4.78125H4.03125C3.64294 4.78125 3.32812 5.09606 3.32812 5.48438C3.32812 5.87269 3.64294 6.1875 4.03125 6.1875H6.84375C7.23206 6.1875 7.54688 5.87269 7.54688 5.48438C7.54688 5.09606 7.23206 4.78125 6.84375 4.78125H6.14062V3.375H11.2969V4.78125H10.5938C10.2054 4.78125 9.89062 5.09606 9.89062 5.48438C9.89062 5.87269 10.2054 6.1875 10.5938 6.1875H13.4062C13.7946 6.1875 14.1094 5.87269 14.1094 5.48438C14.1094 5.09606 13.7946 4.78125 13.4062 4.78125H12.7031V3.375H17.8594V4.78125H17.1562C16.7679 4.78125 16.4531 5.09606 16.4531 5.48438C16.4531 5.87269 16.7679 6.1875 17.1562 6.1875H19.9688C20.3571 6.1875 20.6719 5.87269 20.6719 5.48438C20.6719 5.09606 20.3571 4.78125 19.9688 4.78125H19.2656V3.375H22.5938V7.59375Z" fill="black"/>
<path d="M3.5625 11.8125H4.96875C5.35706 11.8125 5.67188 11.4977 5.67188 11.1094C5.67188 10.7211 5.35706 10.4062 4.96875 10.4062H3.5625C3.17419 10.4062 2.85938 10.7211 2.85938 11.1094C2.85938 11.4977 3.17419 11.8125 3.5625 11.8125Z" fill="black"/>
<path d="M7.78125 11.8125H9.1875C9.57581 11.8125 9.89062 11.4977 9.89062 11.1094C9.89062 10.7211 9.57581 10.4062 9.1875 10.4062H7.78125C7.39294 10.4062 7.07812 10.7211 7.07812 11.1094C7.07812 11.4977 7.39294 11.8125 7.78125 11.8125Z" fill="black"/>
<path d="M12 11.8125H13.4062C13.7946 11.8125 14.1094 11.4977 14.1094 11.1094C14.1094 10.7211 13.7946 10.4062 13.4062 10.4062H12C11.6117 10.4062 11.2969 10.7211 11.2969 11.1094C11.2969 11.4977 11.6117 11.8125 12 11.8125Z" fill="black"/>
<path d="M3.5625 14.625H4.96875C5.35706 14.625 5.67188 14.3102 5.67188 13.9219C5.67188 13.5336 5.35706 13.2188 4.96875 13.2188H3.5625C3.17419 13.2188 2.85938 13.5336 2.85938 13.9219C2.85938 14.3102 3.17419 14.625 3.5625 14.625Z" fill="black"/>
<path d="M7.78125 14.625H9.1875C9.57581 14.625 9.89062 14.3102 9.89062 13.9219C9.89062 13.5336 9.57581 13.2188 9.1875 13.2188H7.78125C7.39294 13.2188 7.07812 13.5336 7.07812 13.9219C7.07812 14.3102 7.39294 14.625 7.78125 14.625Z" fill="black"/>
<path d="M12 14.625H13.4062C13.7946 14.625 14.1094 14.3102 14.1094 13.9219C14.1094 13.5336 13.7946 13.2188 13.4062 13.2188H12C11.6117 13.2188 11.2969 13.5336 11.2969 13.9219C11.2969 14.3102 11.6117 14.625 12 14.625Z" fill="black"/>
<path d="M3.5625 17.4375H4.96875C5.35706 17.4375 5.67188 17.1227 5.67188 16.7344C5.67188 16.3461 5.35706 16.0312 4.96875 16.0312H3.5625C3.17419 16.0312 2.85938 16.3461 2.85938 16.7344C2.85938 17.1227 3.17419 17.4375 3.5625 17.4375Z" fill="black"/>
<path d="M7.78125 17.4375H9.1875C9.57581 17.4375 9.89062 17.1227 9.89062 16.7344C9.89062 16.3461 9.57581 16.0312 9.1875 16.0312H7.78125C7.39294 16.0312 7.07812 16.3461 7.07812 16.7344C7.07812 17.1227 7.39294 17.4375 7.78125 17.4375Z" fill="black"/>
<path d="M12 17.4375H13.4062C13.7946 17.4375 14.1094 17.1227 14.1094 16.7344C14.1094 16.3461 13.7946 16.0312 13.4062 16.0312H12C11.6117 16.0312 11.2969 16.3461 11.2969 16.7344C11.2969 17.1227 11.6117 17.4375 12 17.4375Z" fill="black"/>
<path d="M12 20.25H13.4062C13.7946 20.25 14.1094 19.9352 14.1094 19.5469C14.1094 19.1586 13.7946 18.8438 13.4062 18.8438H12C11.6117 18.8438 11.2969 19.1586 11.2969 19.5469C11.2969 19.9352 11.6117 20.25 12 20.25Z" fill="black"/>
<path d="M3.5625 20.25H4.96875C5.35706 20.25 5.67188 19.9352 5.67188 19.5469C5.67188 19.1586 5.35706 18.8438 4.96875 18.8438H3.5625C3.17419 18.8438 2.85938 19.1586 2.85938 19.5469C2.85938 19.9352 3.17419 20.25 3.5625 20.25Z" fill="black"/>
<path d="M7.78125 20.25H9.1875C9.57581 20.25 9.89062 19.9352 9.89062 19.5469C9.89062 19.1586 9.57581 18.8438 9.1875 18.8438H7.78125C7.39294 18.8438 7.07812 19.1586 7.07812 19.5469C7.07812 19.9352 7.39294 20.25 7.78125 20.25Z" fill="black"/>
<path d="M16.6875 14.1562H17.8594V15.3281C17.8594 15.7164 18.1742 16.0312 18.5625 16.0312C18.9508 16.0312 19.2656 15.7164 19.2656 15.3281V14.1562H20.4375C20.8258 14.1562 21.1406 13.8414 21.1406 13.4531C21.1406 13.0648 20.8258 12.75 20.4375 12.75H19.2656V11.5781C19.2656 11.1898 18.9508 10.875 18.5625 10.875C18.1742 10.875 17.8594 11.1898 17.8594 11.5781V12.75H16.6875C16.2992 12.75 15.9844 13.0648 15.9844 13.4531C15.9844 13.8414 16.2992 14.1562 16.6875 14.1562Z" fill="black"/>
</svg>
