<svg width="20" height="20" viewBox="0 0 26 26" fill="none" xmlns="http://www.w3.org/2000/svg">
<path d="M23.196 3.14832H19.0578C17.72 1.24606 15.5037 0 13.0003 0C10.4969 0 8.28046 1.24606 6.94225 3.14832H2.80404C1.25801 3.14832 0 4.40141 0 5.94141V23.2069C0 24.7469 1.25801 26 2.80404 26H23.196C24.742 26 26 24.7469 26 23.2069V5.94141C26 4.40141 24.742 3.14832 23.196 3.14832ZM8.35057 3.80954L8.85397 4.31098C9.15258 4.60842 9.63683 4.60842 9.93544 4.31098C10.2341 4.01353 10.2341 3.53118 9.93544 3.23373L9.43203 2.73229C10.23 2.12082 11.1894 1.70932 12.2351 1.57315V2.28512C12.2351 2.70566 12.5776 3.04682 12.9998 3.04682C13.4219 3.04682 13.7644 2.70566 13.7644 2.28512V1.57315C14.8101 1.70932 15.7695 2.12082 16.5675 2.73229L16.0641 3.23373C15.7655 3.53118 15.7655 4.01353 16.0641 4.31098C16.3627 4.60842 16.8469 4.60842 17.1455 4.31098L17.6489 3.80954C18.2628 4.6044 18.6764 5.56005 18.8131 6.60162H13.7649V5.33194C13.7649 4.9114 13.4225 4.57024 13.0003 4.57024C12.5781 4.57024 12.2356 4.9114 12.2356 5.33194V6.60162H7.18739C7.32408 5.56005 7.73771 4.6044 8.35158 3.80954H8.35057ZM24.4701 23.2069C24.4701 23.9068 23.8981 24.4766 23.1955 24.4766H2.80353C2.10089 24.4766 1.52888 23.9073 1.52888 23.2069V5.94141C1.52888 5.2415 2.10038 4.67173 2.80353 4.67173H6.11854C5.78865 5.50579 5.60707 6.41371 5.60707 7.36333C5.60707 7.78387 5.94956 8.12503 6.37175 8.12503H19.6267C20.0489 8.12503 20.3914 7.78387 20.3914 7.36333C20.3914 6.41371 20.2098 5.50579 19.8799 4.67173H23.1955C23.8981 4.67173 24.4701 5.2415 24.4701 5.94141V23.2069Z" fill="black"/>
<path d="M3.82328 7.71848C4.24561 7.71848 4.58798 7.37745 4.58798 6.95677C4.58798 6.5361 4.24561 6.19507 3.82328 6.19507C3.40095 6.19507 3.05859 6.5361 3.05859 6.95677C3.05859 7.37745 3.40095 7.71848 3.82328 7.71848Z" fill="black"/>
<path d="M3.82328 22.9532C4.24561 22.9532 4.58798 22.6122 4.58798 22.1915C4.58798 21.7708 4.24561 21.4298 3.82328 21.4298C3.40095 21.4298 3.05859 21.7708 3.05859 22.1915C3.05859 22.6122 3.40095 22.9532 3.82328 22.9532Z" fill="black"/>
<path d="M22.1749 7.71848C22.5972 7.71848 22.9395 7.37745 22.9395 6.95677C22.9395 6.5361 22.5972 6.19507 22.1749 6.19507C21.7525 6.19507 21.4102 6.5361 21.4102 6.95677C21.4102 7.37745 21.7525 7.71848 22.1749 7.71848Z" fill="black"/>
<path d="M22.1749 22.9532C22.5972 22.9532 22.9395 22.6122 22.9395 22.1915C22.9395 21.7708 22.5972 21.4298 22.1749 21.4298C21.7525 21.4298 21.4102 21.7708 21.4102 22.1915C21.4102 22.6122 21.7525 22.9532 22.1749 22.9532Z" fill="black"/>
<path d="M21.9239 13.6786C21.9239 11.5126 20.1549 9.75 17.9804 9.75C16.5009 9.75 15.2969 10.9493 15.2969 12.423C15.2969 13.2832 15.5012 14.1449 15.8875 14.9146C16.168 15.4738 16.3168 16.0999 16.3168 16.7249V18.1283C16.3168 19.6683 17.5748 20.9214 19.1208 20.9214C20.6669 20.9214 21.9249 19.6683 21.9249 18.1283V13.6776L21.9239 13.6786ZM20.3945 18.1293C20.3945 18.8292 19.8225 19.3989 19.1198 19.3989C18.4172 19.3989 17.8452 18.8292 17.8452 18.1293V16.7259C17.8452 15.8653 17.6409 15.0036 17.2545 14.2343C16.974 13.6751 16.8252 13.0491 16.8252 12.424C16.8252 11.7899 17.3428 11.2744 17.9793 11.2744C19.3105 11.2744 20.394 12.3532 20.394 13.6796V18.1303L20.3945 18.1293Z" fill="black"/>
<path d="M8.02213 9.75C5.8476 9.75 4.07812 11.5126 4.07812 13.6786V18.1293C4.07812 19.6693 5.33614 20.9224 6.88216 20.9224C8.42819 20.9224 9.68619 19.6693 9.68619 18.1293V16.7259C9.68619 16.1009 9.83449 15.4744 10.1154 14.9156C10.5018 14.1459 10.7061 13.2842 10.7061 12.424C10.7061 10.9503 9.50208 9.75101 8.02264 9.75101L8.02213 9.75ZM8.74748 14.2338C8.3611 15.0036 8.15682 15.8653 8.15682 16.7254V18.1288C8.15682 18.8287 7.58532 19.3984 6.88216 19.3984C6.17952 19.3984 5.60751 18.8287 5.60751 18.1288V13.6781C5.60751 12.3522 6.69048 11.2729 8.02213 11.2729C8.6587 11.2729 9.17624 11.7884 9.17624 12.4225C9.17624 13.0475 9.02794 13.6736 8.74698 14.2328L8.74748 14.2338Z" fill="black"/>
<path d="M12.9991 9.75C12.5769 9.75 12.2344 10.0912 12.2344 10.5117V22.1915C12.2344 22.6121 12.5769 22.9532 12.9991 22.9532C13.4213 22.9532 13.7638 22.6121 13.7638 22.1915V10.5117C13.7638 10.0912 13.4213 9.75 12.9991 9.75Z" fill="black"/>
</svg>
