<svg width="20" height="20" viewBox="0 0 24 24" fill="none" xmlns="http://www.w3.org/2000/svg">
<path d="M12.008 24C10.3533 24 8.7983 23.685 7.34298 23.055C5.88766 22.425 4.615 21.565 3.525 20.475C2.435 19.385 1.575 18.1116 0.945 16.6548C0.315 15.198 0 13.6414 0 11.985C0 10.3286 0.315 8.77203 0.945 7.31523C1.575 5.85841 2.435 4.59 3.525 3.51C4.615 2.43 5.88841 1.575 7.34523 0.945C8.80203 0.315 10.3586 0 12.015 0C13.6714 0 15.228 0.315 16.6848 0.945C18.1416 1.575 19.41 2.43 20.49 3.51C21.57 4.59 22.425 5.86 23.055 7.32C23.685 8.78 24 10.3373 24 11.992C24 13.6467 23.685 15.2017 23.055 16.657C22.425 18.1123 21.57 19.3832 20.49 20.4695C19.41 21.5558 18.14 22.4158 16.68 23.0495C15.22 23.6832 13.6627 24 12.008 24ZM12.015 22.2C14.845 22.2 17.25 21.205 19.23 19.215C21.21 17.225 22.2 14.815 22.2 11.985C22.2 9.155 21.2119 6.75 19.2356 4.77C17.2594 2.79 14.8475 1.8 12 1.8C9.18 1.8 6.775 2.78812 4.785 4.76436C2.795 6.74062 1.8 9.1525 1.8 12C1.8 14.82 2.795 17.225 4.785 19.215C6.775 21.205 9.185 22.2 12.015 22.2ZM12 20.4C12.36 20.4 12.68 20.285 12.96 20.055C13.24 19.825 13.41 19.54 13.47 19.2H10.53C10.61 19.54 10.785 19.825 11.055 20.055C11.325 20.285 11.64 20.4 12 20.4ZM8.4 17.1H15.6V15.9H8.4V17.1ZM8.43 14.4H15.57C16.31 13.86 16.9 13.175 17.34 12.345C17.78 11.515 18 10.6 18 9.6C18 7.94 17.415 6.525 16.245 5.355C15.075 4.185 13.66 3.6 12 3.6C10.34 3.6 8.925 4.185 7.755 5.355C6.585 6.525 6 7.94 6 9.6C6 10.6 6.22 11.515 6.66 12.345C7.1 13.175 7.69 13.86 8.43 14.4ZM8.85 13.2C8.33838 12.7042 7.93547 12.1403 7.64127 11.5082C7.34709 10.8761 7.2 10.24 7.2 9.6C7.2 8.27428 7.66798 7.14285 8.60394 6.20571C9.5399 5.26857 10.6699 4.8 11.9939 4.8C13.318 4.8 14.45 5.26857 15.39 6.20571C16.33 7.14285 16.8 8.27428 16.8 9.6C16.8 10.24 16.6529 10.8761 16.3587 11.5082C16.0645 12.1403 15.6616 12.7042 15.15 13.2H8.85Z" fill="black"/>
</svg>
