<svg width="32" height="32" viewBox="0 0 24 24" fill="none" xmlns="http://www.w3.org/2000/svg">
<path d="M14.854 14.146L10.854 10.146L10.146 10.854L14.146 14.854L14.854 14.146ZM6.5 12C5.04131 12 3.64236 11.4205 2.61091 10.3891C1.57946 9.35764 1 7.95869 1 6.5H0C0 8.22391 0.684819 9.87721 1.90381 11.0962C3.12279 12.3152 4.77609 13 6.5 13V12ZM12 6.5C12 7.95869 11.4205 9.35764 10.3891 10.3891C9.35764 11.4205 7.95869 12 6.5 12V13C8.22391 13 9.87721 12.3152 11.0962 11.0962C12.3152 9.87721 13 8.22391 13 6.5H12ZM6.5 1C7.95869 1 9.35764 1.57946 10.3891 2.61091C11.4205 3.64236 12 5.04131 12 6.5H13C13 4.77609 12.3152 3.12279 11.0962 1.90381C9.87721 0.684819 8.22391 0 6.5 0V1ZM6.5 0C4.77609 0 3.12279 0.684819 1.90381 1.90381C0.684819 3.12279 0 4.77609 0 6.5H1C1 5.04131 1.57946 3.64236 2.61091 2.61091C3.64236 1.57946 5.04131 1 6.5 1V0Z" fill="black"/>
<path fill-rule="evenodd" clip-rule="evenodd" d="M6.5 8.83333C4.8818 8.83333 3.518 7.91467 2.6576 6.5C3.518 5.08533 4.8818 4.16667 6.5 4.16667C8.1182 4.16667 9.482 5.08533 10.3424 6.5C9.482 7.91467 8.1182 8.83333 6.5 8.83333ZM6.5 3.5C4.5848 3.5 2.9936 4.63733 2.0456 6.32333C2.0158 6.37631 2 6.43753 2 6.5C2 6.56247 2.0158 6.62369 2.0456 6.67667C2.9936 8.36267 4.5848 9.5 6.5 9.5C8.4152 9.5 10.0064 8.36267 10.9544 6.67667C10.9842 6.62369 11 6.56247 11 6.5C11 6.43753 10.9842 6.37631 10.9544 6.32333C10.0064 4.63733 8.4152 3.5 6.5 3.5ZM6.5 7.83333C6.81826 7.83333 7.12348 7.69286 7.34853 7.44281C7.57357 7.19276 7.7 6.85362 7.7 6.5C7.7 6.14638 7.57357 5.80724 7.34853 5.55719C7.12348 5.30714 6.81826 5.16667 6.5 5.16667C6.18174 5.16667 5.87652 5.30714 5.65147 5.55719C5.42643 5.80724 5.3 6.14638 5.3 6.5C5.3 6.85362 5.42643 7.19276 5.65147 7.44281C5.87652 7.69286 6.18174 7.83333 6.5 7.83333Z" fill="black"/>
</svg>
