<svg width="20" height="20" viewBox="0 0 20 24" fill="none" xmlns="http://www.w3.org/2000/svg">
<path d="M10.4933 4.8241C9.74817 4.8241 9.01616 4.8241 8.27107 4.8241C7.29068 4.8111 6.46715 4.06968 6.38871 3.14617C6.29721 2.11861 6.92467 1.24713 7.90506 1.03902C8.0227 1.01301 8.15342 1 8.27107 1C9.74819 1 11.2384 1 12.7155 1C13.709 1 14.4671 1.68938 14.6109 2.66491C14.7678 3.7315 13.9312 4.75904 12.8593 4.79806C12.075 4.82408 11.2776 4.79806 10.4933 4.79806V4.8241Z" stroke="#000000" stroke-width="1.5"/>
<path d="M19.4738 7.23038C19.4738 6.3459 19.2516 5.52645 18.7418 4.79805C18.2451 4.06965 17.5784 3.54938 16.7288 3.2242C16.7157 3.32826 16.6895 3.40628 16.6765 3.48432C16.415 5.40938 14.7418 6.90522 12.7941 6.91823C11.2647 6.93123 9.74837 6.91823 8.21896 6.91823C7.25164 6.91823 6.40196 6.58004 5.66993 5.94269C4.8464 5.2273 4.40196 4.3298 4.28432 3.21118C4.1536 3.26321 4.03598 3.30225 3.94447 3.35428C2.34971 4.16072 1.51307 5.44841 1.5 7.23038C1.5 10.7163 1.50001 14.2022 1.51308 17.6881C1.51308 17.8052 1.5131 17.9353 1.52617 18.0523C1.66996 20.2375 3.43466 21.9675 5.6438 21.9805C8.88563 22.0065 12.1275 22.0065 15.3693 21.9805C17.6699 21.9545 19.4869 20.0945 19.5 17.8052C19.5 14.2803 19.5 10.7553 19.5 7.2174L19.4738 7.23038ZM13.7745 16.7646H7.22549C6.63725 16.7646 6.16667 16.2964 6.16667 15.7111C6.16667 15.1257 6.63725 14.6575 7.22549 14.6575H13.7745C14.3627 14.6575 14.8333 15.1257 14.8333 15.7111C14.8333 16.2964 14.3627 16.7646 13.7745 16.7646ZM13.7745 12.2121H7.22549C6.63725 12.2121 6.16667 11.7439 6.16667 11.1586C6.16667 10.5732 6.63725 10.105 7.22549 10.105H13.7745C14.3627 10.105 14.8333 10.5732 14.8333 11.1586C14.8333 11.7439 14.3627 12.2121 13.7745 12.2121Z" stroke="#000000" stroke-width="1.5"/>
</svg>
