<svg width="20" height="20" viewBox="0 0 24 25" fill="none" xmlns="http://www.w3.org/2000/svg">
<path d="M13.4278 0.75L19.9044 0.750008C21.2484 0.750008 22.25 1.75676 22.25 2.88236C22.25 3.27539 22.2356 7.86286 22.2212 12.4538L22.2212 12.4798C22.2068 17.0594 22.1925 21.6345 22.1925 22.0296C22.1925 23.2454 21.1887 24.25 19.9386 24.25H3.09556C1.75158 24.25 0.75 23.2432 0.75 22.1176V2.88236C0.75 1.75675 1.75158 0.75 3.09556 0.75H13.4278Z" stroke="#000000" stroke-width="1.5"/>
<path d="M18.98 14H4.02C3.45669 14 3 14.4477 3 15C3 15.5523 3.45669 16 4.02 16H18.98C19.5433 16 20 15.5523 20 15C20 14.4477 19.5433 14 18.98 14Z" fill="#000000"/>
<path d="M18.98 18H4.02C3.45669 18 3 18.4477 3 19C3 19.5523 3.45669 20 4.02 20H18.98C19.5433 20 20 19.5523 20 19C20 18.4477 19.5433 18 18.98 18Z" fill="#000000"/>
<path d="M12.0286 4.25666L11.4168 5.11945L10.805 4.25666C10.4613 3.77185 10.0718 3.58435 9.66692 3.58435C8.89763 3.58435 8.08369 4.34653 8.08369 5.64582C8.08369 6.28438 8.30029 6.83066 8.73166 7.42056C9.18116 8.03526 9.82668 8.64998 10.6568 9.43602L10.6569 9.43604L10.6616 9.44051C10.9027 9.66884 11.1535 9.9063 11.4169 10.1605C11.6785 9.90792 11.9278 9.67192 12.1674 9.44501L12.1769 9.43604L12.1769 9.43603C13.007 8.64999 13.6525 8.03527 14.102 7.42056C14.5334 6.83066 14.75 6.28439 14.75 5.64582C14.75 4.34653 13.9361 3.58435 13.1668 3.58435C12.7619 3.58435 12.3724 3.77185 12.0286 4.25666Z" stroke="#000000" stroke-width="1.5"/>
</svg>
