<svg width="35" height="35" viewBox="0 0 35 35" fill="none" xmlns="http://www.w3.org/2000/svg">
<mask id="path-1-inside-1_2688_9424" fill="white">
<path d="M31.4367 16.4653C30.8089 14.2977 29.7208 12.3736 28.171 10.7011C27.9556 10.4686 27.9697 10.3318 28.1921 10.1253C28.7594 9.59884 29.2985 9.04499 29.8658 8.51712C30.0389 8.35575 30.0248 8.26686 29.863 8.11506C29.2915 7.57625 28.7242 7.03333 28.1738 6.47401C27.9951 6.29349 27.8993 6.27572 27.7121 6.4658C27.1054 7.0812 26.472 7.67334 25.8569 8.2819C25.7035 8.43506 25.5866 8.47609 25.3853 8.3366C24.6323 7.81283 23.813 7.39573 22.9657 7.03607C21.634 6.47127 20.249 6.0952 18.8019 5.94477C18.6035 5.92426 18.4908 5.87092 18.4951 5.63571C18.5105 4.85074 18.5077 4.06577 18.4979 3.2808C18.4951 2.99635 18.6161 2.92251 18.8976 2.92934C19.6578 2.94849 20.4193 2.92798 21.1808 2.94028C21.4102 2.94439 21.5102 2.90883 21.5046 2.65173C21.4863 1.86676 21.4877 1.0818 21.5046 0.296827C21.5102 0.0479342 21.4215 7.02653e-05 21.1864 0.00143781C19.7929 0.0110106 18.3993 0.00690797 17.0058 0.00690797C15.6123 0.00690797 14.2187 0.0137457 12.8252 7.02654e-05C12.5563 -0.00266482 12.4944 0.0739175 12.5 0.32281C12.5169 1.09684 12.5169 1.87087 12.5 2.64353C12.4944 2.89652 12.5929 2.94439 12.8238 2.94028C13.5726 2.92934 14.3243 2.9608 15.0717 2.92934C15.4532 2.91293 15.5222 3.05652 15.5137 3.3779C15.4954 4.01517 15.5095 4.65244 15.5123 5.28972C15.5142 5.6781 15.3157 5.90101 14.9169 5.95845C14.8367 5.97075 14.7593 6.00221 14.679 6.01315C12.4719 6.33315 10.4576 7.12906 8.61642 8.34207C8.43062 8.46515 8.33771 8.46105 8.18428 8.30925C7.54663 7.67334 6.89209 7.05521 6.25304 6.42068C6.11227 6.28119 6.03204 6.27572 5.88987 6.41794C5.30993 6.99778 4.72577 7.57078 4.12754 8.13147C3.96285 8.286 3.98677 8.37216 4.13457 8.51165C4.69762 9.04225 5.23955 9.59474 5.81104 10.1158C6.04752 10.3305 6.06723 10.4604 5.83638 10.7107C3.60109 13.1271 2.3469 15.9743 2.05693 19.199C1.88661 21.0985 2.09635 22.9761 2.71429 24.8059C3.95862 28.4942 6.31075 31.3127 9.79882 33.1793C13.2813 35.0433 16.9875 35.4686 20.8416 34.4895C28.9227 32.4381 33.7029 24.2985 31.4367 16.4653ZM23.5245 20.5761C21.3877 22.6548 19.2481 24.7293 17.11 26.8066C16.4132 27.4835 15.5869 27.9362 14.6115 28.0989C13.1236 28.3478 11.799 27.9923 10.6561 27.035C9.87624 26.3813 9.37653 25.5512 9.1668 24.5789C8.87965 23.2469 9.15413 22.0134 9.98462 20.9084C10.3647 20.4038 10.8531 19.9949 11.305 19.5532C13.1363 17.7672 14.9732 15.988 16.8031 14.202C17.3887 13.6304 18.0559 13.19 18.8526 12.9534C19.5268 12.7524 20.2124 12.6991 20.9133 12.8003C22.0746 12.9671 23.0388 13.4813 23.8032 14.3387C24.3902 14.9965 24.7547 15.7596 24.8828 16.6266C24.918 16.8605 24.9391 17.0943 24.9419 17.3309C24.9222 18.6 24.4436 19.6804 23.5245 20.5761Z"/>
</mask>
<path d="M31.4367 16.4653C30.8089 14.2977 29.7208 12.3736 28.171 10.7011C27.9556 10.4686 27.9697 10.3318 28.1921 10.1253C28.7594 9.59884 29.2985 9.04499 29.8658 8.51712C30.0389 8.35575 30.0248 8.26686 29.863 8.11506C29.2915 7.57625 28.7242 7.03333 28.1738 6.47401C27.9951 6.29349 27.8993 6.27572 27.7121 6.4658C27.1054 7.0812 26.472 7.67334 25.8569 8.2819C25.7035 8.43506 25.5866 8.47609 25.3853 8.3366C24.6323 7.81283 23.813 7.39573 22.9657 7.03607C21.634 6.47127 20.249 6.0952 18.8019 5.94477C18.6035 5.92426 18.4908 5.87092 18.4951 5.63571C18.5105 4.85074 18.5077 4.06577 18.4979 3.2808C18.4951 2.99635 18.6161 2.92251 18.8976 2.92934C19.6578 2.94849 20.4193 2.92798 21.1808 2.94028C21.4102 2.94439 21.5102 2.90883 21.5046 2.65173C21.4863 1.86676 21.4877 1.0818 21.5046 0.296827C21.5102 0.0479342 21.4215 7.02653e-05 21.1864 0.00143781C19.7929 0.0110106 18.3993 0.00690797 17.0058 0.00690797C15.6123 0.00690797 14.2187 0.0137457 12.8252 7.02654e-05C12.5563 -0.00266482 12.4944 0.0739175 12.5 0.32281C12.5169 1.09684 12.5169 1.87087 12.5 2.64353C12.4944 2.89652 12.5929 2.94439 12.8238 2.94028C13.5726 2.92934 14.3243 2.9608 15.0717 2.92934C15.4532 2.91293 15.5222 3.05652 15.5137 3.3779C15.4954 4.01517 15.5095 4.65244 15.5123 5.28972C15.5142 5.6781 15.3157 5.90101 14.9169 5.95845C14.8367 5.97075 14.7593 6.00221 14.679 6.01315C12.4719 6.33315 10.4576 7.12906 8.61642 8.34207C8.43062 8.46515 8.33771 8.46105 8.18428 8.30925C7.54663 7.67334 6.89209 7.05521 6.25304 6.42068C6.11227 6.28119 6.03204 6.27572 5.88987 6.41794C5.30993 6.99778 4.72577 7.57078 4.12754 8.13147C3.96285 8.286 3.98677 8.37216 4.13457 8.51165C4.69762 9.04225 5.23955 9.59474 5.81104 10.1158C6.04752 10.3305 6.06723 10.4604 5.83638 10.7107C3.60109 13.1271 2.3469 15.9743 2.05693 19.199C1.88661 21.0985 2.09635 22.9761 2.71429 24.8059C3.95862 28.4942 6.31075 31.3127 9.79882 33.1793C13.2813 35.0433 16.9875 35.4686 20.8416 34.4895C28.9227 32.4381 33.7029 24.2985 31.4367 16.4653ZM23.5245 20.5761C21.3877 22.6548 19.2481 24.7293 17.11 26.8066C16.4132 27.4835 15.5869 27.9362 14.6115 28.0989C13.1236 28.3478 11.799 27.9923 10.6561 27.035C9.87624 26.3813 9.37653 25.5512 9.1668 24.5789C8.87965 23.2469 9.15413 22.0134 9.98462 20.9084C10.3647 20.4038 10.8531 19.9949 11.305 19.5532C13.1363 17.7672 14.9732 15.988 16.8031 14.202C17.3887 13.6304 18.0559 13.19 18.8526 12.9534C19.5268 12.7524 20.2124 12.6991 20.9133 12.8003C22.0746 12.9671 23.0388 13.4813 23.8032 14.3387C24.3902 14.9965 24.7547 15.7596 24.8828 16.6266C24.918 16.8605 24.9391 17.0943 24.9419 17.3309C24.9222 18.6 24.4436 19.6804 23.5245 20.5761Z" stroke="#000000" stroke-width="3" mask="url(#path-1-inside-1_2688_9424)"/>
<mask id="path-2-inside-2_2688_9424" fill="white">
<path d="M20.9017 14.0185C19.9168 13.9284 19.0096 14.1643 18.2858 14.7791C17.2293 15.6762 16.2071 16.6063 15.173 17.5233C14.9342 17.7353 14.9492 17.6982 15.1775 17.9009C16.6876 19.2472 18.2022 20.5907 19.7139 21.9383C19.7975 22.0125 19.8452 22.0258 19.9347 21.9449C20.9375 21.0479 21.9463 20.1535 22.9506 19.2591C23.634 18.6509 23.9907 17.9181 23.9981 17.0555C24.0056 16.8793 23.9907 16.7057 23.9549 16.5335C23.6728 15.174 22.4775 14.1603 20.9032 14.0172L20.9017 14.0185Z"/>
</mask>
<path d="M20.9017 14.0185C19.9168 13.9284 19.0096 14.1643 18.2858 14.7791C17.2293 15.6762 16.2071 16.6063 15.173 17.5233C14.9342 17.7353 14.9492 17.6982 15.1775 17.9009C16.6876 19.2472 18.2022 20.5907 19.7139 21.9383C19.7975 22.0125 19.8452 22.0258 19.9347 21.9449C20.9375 21.0479 21.9463 20.1535 22.9506 19.2591C23.634 18.6509 23.9907 17.9181 23.9981 17.0555C24.0056 16.8793 23.9907 16.7057 23.9549 16.5335C23.6728 15.174 22.4775 14.1603 20.9032 14.0172L20.9017 14.0185Z" stroke="#000000" stroke-width="3" mask="url(#path-2-inside-2_2688_9424)"/>
</svg>
