<svg width="19" height="20" viewBox="0 0 24 24" fill="none" xmlns="http://www.w3.org/2000/svg">
<path d="M16.4929 24.7143H22.4086C22.7353 24.7143 23.0001 24.4321 23.0001 24.084V22.1933C23.0001 20.5789 22.0455 19.1978 20.7063 18.6564C21.3728 18.21 21.817 17.4199 21.817 16.521C21.817 15.1309 20.7555 14 19.4507 14C18.146 14 17.0845 15.1309 17.0845 16.521C17.0845 17.4199 17.5287 18.21 18.1952 18.6564C16.856 19.1978 15.9014 20.5789 15.9014 22.1933V24.084C15.9014 24.4321 16.1662 24.7143 16.4929 24.7143ZM19.4507 15.2605C20.1031 15.2605 20.6339 15.826 20.6339 16.521C20.6339 17.2161 20.1031 17.7815 19.4507 17.7815C18.7984 17.7815 18.2676 17.2161 18.2676 16.521C18.2676 15.826 18.7984 15.2605 19.4507 15.2605ZM17.0845 22.1933C17.0845 20.8032 18.146 19.6723 19.4507 19.6723C20.7555 19.6723 21.817 20.8032 21.817 22.1933V23.4538H17.0845V22.1933Z" fill="white"/>
<mask id="path-2-inside-1_1362_3463" fill="white">
<path d="M15.4736 0L20.1709 7.01231e-06C21.6463 7.01231e-06 22.8466 1.20474 22.8466 2.68555C22.8466 3.42085 22.858 13.9286 22.858 14.6634H21.3986L21.3807 2.68555C21.3807 2.01246 20.8351 1.46485 20.1644 1.46485L15.251 1.46484H2.67566C2.00505 1.46484 1.45945 2.01246 1.45945 2.68555V22.3144C1.45945 22.9875 2.00505 23.5352 2.67566 23.5352L15.1896 23.4615L15.1896 24.9278L2.67566 25C1.2003 25 0 23.7953 0 22.3144V2.68555C0 1.20474 1.2003 0 2.67566 0H15.4736Z"/>
</mask>
<path d="M20.1709 7.01231e-06L20.1709 1.50001H20.1709V7.01231e-06ZM15.4736 0L15.4736 -1.5H15.4736V0ZM2.67566 25V26.5L2.68432 26.5L2.67566 25ZM15.1896 24.9278L15.1982 26.4278L16.6895 26.4192L16.6896 24.9278L15.1896 24.9278ZM22.858 14.6634V16.1634H24.358V14.6634H22.858ZM15.1896 23.4615L16.6896 23.4615L16.6896 21.9526L15.1807 21.9615L15.1896 23.4615ZM2.67566 23.5352V25.0352L2.6845 25.0351L2.67566 23.5352ZM15.251 1.46484L15.251 -0.035156H15.251V1.46484ZM20.1644 1.46485L20.1644 2.96485H20.1644V1.46485ZM21.3807 2.68555H19.8807L19.8807 2.6878L21.3807 2.68555ZM21.3986 14.6634L19.8986 14.6657L19.9008 16.1634H21.3986V14.6634ZM20.1709 -1.49999L15.4736 -1.5L15.4736 1.5L20.1709 1.50001L20.1709 -1.49999ZM15.4736 -1.5H2.67566V1.5H15.4736V-1.5ZM2.67566 -1.5C0.366663 -1.5 -1.5 0.381538 -1.5 2.68555H1.5C1.5 2.02795 2.03394 1.5 2.67566 1.5V-1.5ZM-1.5 2.68555V22.3144H1.5V2.68555H-1.5ZM-1.5 22.3144C-1.5 24.6185 0.366663 26.5 2.67566 26.5V23.5C2.03394 23.5 1.5 22.9721 1.5 22.3144H-1.5ZM2.68432 26.5L15.1982 26.4278L15.1809 23.4278L2.66701 23.5L2.68432 26.5ZM24.358 14.6634C24.358 14.295 24.3552 11.483 24.3523 8.67314C24.3494 5.86158 24.3466 3.05219 24.3466 2.68555H21.3466C21.3466 3.05421 21.3495 5.86634 21.3523 8.67619C21.3552 11.4877 21.358 14.297 21.358 14.6634H24.358ZM15.1807 21.9615L2.66683 22.0352L2.6845 25.0351L15.1984 24.9614L15.1807 21.9615ZM2.67566 22.0352C2.83869 22.0352 2.95945 22.1643 2.95945 22.3144H-0.0405469C-0.0405469 23.8107 1.1714 25.0352 2.67566 25.0352V22.0352ZM2.95945 22.3144V2.68555H-0.0405469V22.3144H2.95945ZM2.95945 2.68555C2.95945 2.83566 2.83869 2.96484 2.67566 2.96484V-0.035156C1.1714 -0.035156 -0.0405469 1.18926 -0.0405469 2.68555H2.95945ZM2.67566 2.96484H15.251V-0.035156H2.67566V2.96484ZM15.251 2.96484L20.1644 2.96485L20.1644 -0.0351504L15.251 -0.035156L15.251 2.96484ZM19.8807 2.6878L19.8986 14.6657L22.8986 14.6612L22.8807 2.68331L19.8807 2.6878ZM20.1644 2.96485C20.0014 2.96485 19.8807 2.83568 19.8807 2.68555H22.8807C22.8807 1.18924 21.6687 -0.0351504 20.1644 -0.0351504V2.96485ZM24.3466 2.68555C24.3466 0.381527 22.4799 -1.49999 20.1709 -1.49999V1.50001C20.8127 1.50001 21.3466 2.02796 21.3466 2.68555H24.3466ZM16.6896 24.9278V23.4615L13.6896 23.4615L13.6896 24.9278L16.6896 24.9278ZM22.858 13.1634H21.3986V16.1634H22.858V13.1634Z" fill="white" mask="url(#path-2-inside-1_1362_3463)"/>
<path d="M18.9224 4H3.93552C3.40862 4 2.98145 4.44773 2.98145 5C2.98145 5.55227 3.40862 6 3.93552 6H18.9224C19.4493 6 19.8765 5.55227 19.8765 5C19.8765 4.44773 19.4493 4 18.9224 4Z" fill="white"/>
<path d="M18.9224 8H3.93552C3.40862 8 2.98145 8.44773 2.98145 9C2.98145 9.55227 3.40862 10 3.93552 10H18.9224C19.4493 10 19.8765 9.55227 19.8765 9C19.8765 8.44773 19.4493 8 18.9224 8Z" fill="white"/>
<path d="M12.0717 12.5H4.32727C3.8979 12.5 3.5498 12.8998 3.5498 13.3929C3.5498 13.886 3.8979 14.2857 4.32727 14.2857H12.0717C12.5011 14.2857 12.8492 13.886 12.8492 13.3929C12.8492 12.8998 12.5011 12.5 12.0717 12.5Z" fill="white"/>
</svg>