<svg width="22" height="23" viewBox="0 0 22 23" fill="none" xmlns="http://www.w3.org/2000/svg">
<g clip-path="url(#clip0_381_222)">
<path d="M16.6737 12.6482C16.1579 12.5714 15.7667 12.1496 15.7667 11.625C15.7667 11.0517 16.2232 10.6 16.8095 10.6C16.9884 10.6 17.1557 10.647 17.3354 10.739L17.4194 10.782L17.4672 10.7006L18.2291 9.40313L18.2802 9.31615L18.1928 9.26582C17.7732 9.0243 17.2912 8.89999 16.8095 8.89999C15.293 8.89999 14.0429 10.1283 14.0429 11.625C14.0429 12.3084 14.31 12.9354 14.7499 13.4153C13.6151 14.1908 12.9 15.4705 12.9 16.875C12.9 19.2042 14.8282 21.1 17.1905 21.1C18.5483 21.1 19.8913 20.7507 21.05 20.0816L21.1372 20.0312L21.0862 19.9444L20.3243 18.6469L20.2745 18.5621L20.1889 18.6104C19.2744 19.127 18.2398 19.4 17.1905 19.4C15.7659 19.4 14.6238 18.2806 14.6238 16.875C14.6226 16.3197 14.8078 15.7793 15.1511 15.3383C15.4944 14.8973 15.9766 14.5802 16.5225 14.4367L20.4923 13.3867L20.5898 13.3609L20.5632 13.2636L20.167 11.8161L20.1407 11.7202L20.0446 11.7459L16.6737 12.6482Z" fill="#8A1538" stroke="#8A1538" stroke-width="0.2"/>
<path d="M7.09291 0.962855L7.06776 0.899994H7.00006H5.00006H4.93235L4.90721 0.962862L0.50821 11.9629L0.453369 12.1H0.60106H2.75506H2.82278L2.84792 12.0371L4.02178 9.09999H7.97639L9.15223 12.0372L9.17739 12.1H9.24507H11.4001H11.5478L11.4929 11.9629L7.09291 0.962855ZM7.09741 6.89999H4.90081L5.99999 4.15425L7.09741 6.89999Z" fill="#8A1538" stroke="#8A1538" stroke-width="0.2"/>
<path d="M8.25001 19.0005H2.85001V20.5005H8.25001V19.0005Z" fill="#8A1538"/>
<path d="M3.60019 14.0005V20.0005" stroke="#8A1538" stroke-width="1.5"/>
<path d="M6 22.0005L9 19.5005L6 17.0005" stroke="#8A1538" stroke-linecap="round" stroke-linejoin="round"/>
<path d="M15.75 4L21.15 4V2.5L15.75 2.5V4Z" fill="#8A1538"/>
<path d="M20.3998 9V3" stroke="#8A1538" stroke-width="1.5"/>
<path d="M18 1L15 3.5L18 6" stroke="#8A1538" stroke-linecap="round" stroke-linejoin="round"/>
</g>
<defs>
<clipPath id="clip0_381_222">
<rect width="22" height="23" fill="white"/>
</clipPath>
</defs>
</svg>
