<svg width="22" height="23" viewBox="0 0 22 23" fill="none" xmlns="http://www.w3.org/2000/svg">
<path d="M16.6737 12.6482C16.1579 12.5714 15.7667 12.1496 15.7667 11.625C15.7667 11.0517 16.2232 10.6 16.8095 10.6C16.9884 10.6 17.1557 10.647 17.3354 10.739L17.4194 10.782L17.4672 10.7006L18.2291 9.40314L18.2802 9.31616L18.1928 9.26583C17.7732 9.02431 17.2912 8.9 16.8095 8.9C15.293 8.9 14.0429 10.1283 14.0429 11.625C14.0429 12.3084 14.31 12.9354 14.7499 13.4153C13.6151 14.1908 12.9 15.4705 12.9 16.875C12.9 19.2042 14.8282 21.1 17.1905 21.1C18.5483 21.1 19.8913 20.7507 21.05 20.0816L21.1372 20.0312L21.0862 19.9444L20.3243 18.6469L20.2745 18.5621L20.1889 18.6104C19.2744 19.127 18.2398 19.4 17.1905 19.4C15.7659 19.4 14.6238 18.2806 14.6238 16.875L14.6238 16.8748C14.6226 16.3195 14.8078 15.7793 15.1511 15.3383C15.4944 14.8973 15.9766 14.5802 16.5225 14.4367L16.5227 14.4367L20.4923 13.3867L20.5898 13.3609L20.5632 13.2636L20.167 11.8161L20.1407 11.7202L20.0446 11.7459L16.6737 12.6482Z" fill="white" stroke="white" stroke-width="0.2"/>
<path d="M7.09292 0.962861L7.06777 0.9H7.00007H5.00007H4.93236L4.90722 0.962868L0.508224 11.9629L0.453383 12.1H0.601074H2.75507H2.82279L2.84793 12.0371L4.02179 9.1H7.9764L9.15224 12.0372L9.1774 12.1H9.24508H11.4001H11.5478L11.4929 11.9629L7.09292 0.962861ZM7.09742 6.9H4.90082L6 4.15426L7.09742 6.9Z" fill="white" stroke="white" stroke-width="0.2"/>
<rect x="2.85" y="19.0005" width="5.4" height="1.5" fill="white"/>
<path d="M3.6002 14.0005V20.0005" stroke="white" stroke-width="1.5"/>
<path d="M6 22.0005L9 19.5005L6 17.0005" stroke="white" stroke-linecap="round" stroke-linejoin="round"/>
<rect x="21.15" y="4" width="5.4" height="1.5" transform="rotate(-180 21.15 4)" fill="white"/>
<path d="M20.3998 9L20.3998 3" stroke="white" stroke-width="1.5"/>
<path d="M18 1L15 3.5L18 6" stroke="white" stroke-linecap="round" stroke-linejoin="round"/>
</svg>
