<svg width="20" height="20" viewBox="0 0 24 25" fill="none" xmlns="http://www.w3.org/2000/svg">
<g clip-path="url(#clip0_2147_5881)">
<path d="M4.38692 17.7802C4.99315 17.1751 5.57052 16.6133 6.16232 16.0226C5.52722 15.2735 4.89211 14.5244 4.28588 13.7609C4.11267 13.5448 3.96833 13.2855 3.88172 13.0262C3.72295 12.5364 3.86729 12.0898 4.25701 11.7441C4.66117 11.3984 5.13749 11.3551 5.62826 11.5712C5.83033 11.6577 6.00354 11.7873 6.22006 11.917C6.34996 11.7873 6.49431 11.6289 6.65308 11.4848C8.83264 9.30952 11.0122 7.13424 13.1918 4.95895C14.8084 3.3455 16.5116 3.17263 18.4025 4.42594C18.518 4.51237 18.6479 4.5844 18.7056 4.62762C19.615 3.74886 20.4954 2.88451 21.3904 2.03457C21.5491 1.8761 21.7368 1.71764 21.9244 1.6168C22.343 1.3863 22.8049 1.47274 23.1513 1.80407C23.4978 2.13541 23.5988 2.5964 23.3967 3.02857C23.3245 3.17263 23.2379 3.31669 23.1225 3.43194C22.1987 4.38272 21.2605 5.3191 20.3078 6.28429C20.3367 6.32751 20.3944 6.44276 20.4666 6.52919C21.8378 8.5172 21.578 10.3467 19.8315 12.0178C17.5364 14.2219 15.3136 16.5124 13.033 18.7742C13.1196 18.9182 13.2062 19.0335 13.2784 19.1631C13.6103 19.7249 13.5382 20.4452 13.0907 20.8342C12.6144 21.252 11.936 21.2808 11.4164 20.863C10.7524 20.33 10.1028 19.7826 9.45331 19.2351C9.2801 19.0911 9.10689 18.947 8.96255 18.8174C8.35631 19.4224 7.77895 19.9987 7.17271 20.6037C7.38922 20.8774 7.6346 21.1655 7.87999 21.468C8.28414 21.9723 8.2264 22.5485 7.73564 23.0671C7.21601 23.5857 6.66752 23.6721 6.14789 23.2688C4.48796 21.9867 3.03011 20.5173 1.74546 18.875C1.34131 18.3564 1.41348 17.7513 1.88981 17.2759C2.40944 16.7717 3.00124 16.7141 3.52087 17.1319C3.80955 17.348 4.0838 17.5785 4.37248 17.809L4.38692 17.7802ZM18.5757 11.3119C17.9117 10.6781 17.2911 10.0586 16.656 9.46798C16.2662 9.09343 15.761 9.10784 15.3858 9.46798C15.0393 9.78491 14.9527 10.3323 15.2703 10.6781C15.9198 11.3551 16.6127 11.989 17.2478 12.6085C17.6664 12.2051 18.0994 11.8017 18.6046 11.3263L18.5757 11.3119ZM14.0145 15.8066C14.4475 15.3744 14.8661 14.9566 15.328 14.51C14.7218 13.905 14.0867 13.2567 13.4371 12.6373C13.0474 12.2771 12.5134 12.3203 12.1669 12.6805C11.8205 13.0406 11.7916 13.5736 12.1669 13.9626C12.7732 14.6109 13.4227 15.2159 14.0434 15.821L14.0145 15.8066Z" stroke="#000000" stroke-width="1.5"/>
</g>
<defs>
<clipPath id="clip0_2147_5881">
<rect width="24" height="24" fill="white" transform="translate(24.5 24.5) rotate(-180)"/>
</clipPath>
</defs>
</svg>
